<svg width="32" height="32" viewBox="0 0 32 32" fill="none" xmlns="http://www.w3.org/2000/svg">
<g id="crypto coin">
<path id="Icon" d="M17.5 9.33333V7.83333H14.5V9.33333H17.5ZM14.5 10.6667V12.1667H17.5V10.6667H14.5ZM17.5 21.3333V19.8333H14.5V21.3333H17.5ZM14.5 22.6667V24.1667H17.5V22.6667H14.5ZM26.5 16C26.5 21.799 21.799 26.5 16 26.5V29.5C23.4558 29.5 29.5 23.4558 29.5 16H26.5ZM16 26.5C10.201 26.5 5.5 21.799 5.5 16H2.5C2.5 23.4558 8.54416 29.5 16 29.5V26.5ZM5.5 16C5.5 10.201 10.201 5.5 16 5.5V2.5C8.54416 2.5 2.5 8.54416 2.5 16H5.5ZM16 5.5C21.799 5.5 26.5 10.201 26.5 16H29.5C29.5 8.54416 23.4558 2.5 16 2.5V5.5ZM14.5 9.33333V10.6667H17.5V9.33333H14.5ZM14.5 21.3333V22.6667H17.5V21.3333H14.5ZM16 19.1667C14.2511 19.1667 12.8333 17.7489 12.8333 16H9.83333C9.83333 19.4058 12.5942 22.1667 16 22.1667V19.1667ZM12.8333 16C12.8333 14.2511 14.2511 12.8333 16 12.8333V9.83333C12.5942 9.83333 9.83333 12.5942 9.83333 16H12.8333ZM16 12.8333C17.1501 12.8333 18.1587 13.4456 18.7152 14.3691L21.2848 12.8208C20.2081 11.0339 18.245 9.83333 16 9.83333V12.8333ZM18.7152 17.6309C18.1587 18.5544 17.1501 19.1667 16 19.1667V22.1667C18.245 22.1667 20.2081 20.9661 21.2848 19.1792L18.7152 17.6309Z" fill="black"/>
</g>
</svg>
