<svg width="24" height="24" viewBox="0 0 24 24" fill="none" xmlns="http://www.w3.org/2000/svg">
<g id="crypto coin">
<path id="Icon" d="M13.5 7V5.5H10.5V7H13.5ZM10.5 8V9.5H13.5V8H10.5ZM13.5 16V14.5H10.5V16H13.5ZM10.5 17V18.5H13.5V17H10.5ZM19.5 12C19.5 16.1421 16.1421 19.5 12 19.5V22.5C17.799 22.5 22.5 17.799 22.5 12H19.5ZM12 19.5C7.85786 19.5 4.5 16.1421 4.5 12H1.5C1.5 17.799 6.20101 22.5 12 22.5V19.5ZM4.5 12C4.5 7.85786 7.85786 4.5 12 4.5V1.5C6.20101 1.5 1.5 6.20101 1.5 12H4.5ZM12 4.5C16.1421 4.5 19.5 7.85786 19.5 12H22.5C22.5 6.20101 17.799 1.5 12 1.5V4.5ZM10.5 7V8H13.5V7H10.5ZM10.5 16V17H13.5V16H10.5ZM12 14C10.8954 14 10 13.1046 10 12H7C7 14.7614 9.23858 17 12 17V14ZM10 12C10 10.8954 10.8954 10 12 10V7C9.23858 7 7 9.23858 7 12H10ZM12 10C12.7257 10 13.3629 10.3856 13.7152 10.9704L16.2848 9.42205C15.4122 7.97394 13.8206 7 12 7V10ZM13.7152 13.0296C13.3629 13.6144 12.7257 14 12 14V17C13.8206 17 15.4122 16.0261 16.2848 14.578L13.7152 13.0296Z" fill="#6F2DC1"/>
</g>
</svg>
