<svg width="13" height="14" viewBox="0 0 13 14" fill="none" xmlns="http://www.w3.org/2000/svg">
<path id="c" d="M0 7C0 2.92776 2.56733 0 7.11849 0C10.9228 0 12.6966 2.07604 12.6966 3.75285C12.6966 5.0038 11.8097 6.01521 10.5494 6.01521C9.56912 6.01521 9.07899 5.34981 8.58887 4.71103C8.14542 4.15209 7.79533 3.85931 7.02513 3.85931C5.71813 3.85931 4.76122 4.92395 4.76122 6.89354C4.76122 8.9962 5.81149 10.0608 7.16517 10.0608C8.21544 10.0608 8.77558 9.52852 9.28905 8.96958C9.82585 8.38403 10.3393 7.90494 11.2029 7.90494C12.1598 7.90494 13 8.86312 13 10.0342C13 11.8707 11.1329 14 7.11849 14C2.56733 14 0 11.0722 0 7Z" fill="#6F2DC1"/>
</svg>
