<svg width="15" height="21" viewBox="0 0 15 21" fill="none" xmlns="http://www.w3.org/2000/svg">
<path id="f" d="M9.90566 0C13.8208 0 15 1.61088 15 3.28033C15 4.48117 14.2217 5.47699 12.9717 5.47699C12.0519 5.47699 11.4858 5.03766 10.7547 4.21757C10.1179 3.48535 9.62264 2.87029 8.84434 2.87029C8.06604 2.87029 7.57076 3.48535 7.57076 4.56904C7.57076 5.62343 7.8066 6.20921 7.8066 6.20921H10.1651C11.3679 6.20921 12.1698 7.20502 12.1698 8.5523C12.1698 9.92887 11.3679 10.9247 10.1651 10.9247H8.01887V17.9247C8.01887 19.9163 7.09906 21 5.63679 21C4.17453 21 3.2783 19.887 3.2783 17.9247V10.9247H2.00472C0.801887 10.9247 0 9.92887 0 8.5523C0 7.20502 0.801887 6.20921 2.00472 6.20921H3.30189C3.58491 2.31381 5.73113 0 9.90566 0Z" fill="#6F2DC1"/>
</svg>
