<svg width="14" height="20" viewBox="0 0 14 20" fill="none" xmlns="http://www.w3.org/2000/svg">
<path id="y" d="M0 17.007C0 15.6084 0.818012 14.7972 1.85256 14.7972C2.38186 14.7972 2.7668 14.965 3.17581 15.2727C3.58482 15.5804 3.80135 15.6923 4.13818 15.6923C4.64342 15.6923 5.02837 15.2448 5.02837 14.6014C5.02837 13.986 4.73966 13.3706 4.30659 12.3636L0.890189 4.55944C-0.28871 1.84615 0.938307 0 2.67057 0C3.72917 0 4.52312 0.531468 5.34113 2.76923L7.16963 7.74825H7.3621L9.16654 2.76923C9.98455 0.531468 10.8026 0 11.8371 0C13.4731 0 14.7242 1.84615 13.5212 4.55944L9.3109 14.1259C7.4824 18.2657 5.67796 20 3.24799 20C1.20296 20 0 18.6294 0 17.007Z" fill="#6F2DC1"/>
</svg>
